<?xml version="1.0" encoding="UTF-8"?>
<svg id="Layer_3" data-name="Layer 3" xmlns="http://www.w3.org/2000/svg" viewBox="0 0 300 300">
  <defs>
    <style>
      .cls-1 {
        fill: #fff;
      }

      .cls-2 {
        fill: #82a4d6;
      }
    </style>
  </defs>
  <rect class="cls-2" x="185.76" y="130.88" width="14.03" height="14.03" rx="6" ry="6"/>
  <g>
    <rect class="cls-1" x="100.8" y="105.57" width="14.03" height="14.03" rx="6" ry="6"/>
    <rect class="cls-1" x="121" y="105.57" width="35.79" height="14.03" rx="6" ry="6"/>
    <rect class="cls-1" x="164" y="105.57" width="35.79" height="14.03" rx="6" ry="6"/>
    <rect class="cls-1" x="100.8" y="130.88" width="52.93" height="14.03" rx="6" ry="6"/>
    <rect class="cls-1" x="162.72" y="130.88" width="14.03" height="14.03" rx="6" ry="6"/>
    <path class="cls-1" d="M243.75,203.78c-1.95,0-3.79.47-5.42,1.28-1.83-4.43-6.18-7.54-11.27-7.54-2.13,0-4.13.55-5.87,1.51-2.02-3.93-6.11-6.62-10.83-6.62-1.59,0-3.11.31-4.5.87v-3.93c14.49-.57,26.07-12.49,26.07-27.12v-69.06c0-14.99-12.15-27.15-27.15-27.15h-110.11c-14.99,0-27.15,12.15-27.15,27.15v69.06c0,14.99,12.15,27.15,27.15,27.15h15.7v-14.03h-15.66c-7.37,0-13.34-5.97-13.34-13.34v-68.61c0-7.37,5.97-13.34,13.34-13.34h110.5c7.37,0,13.34,5.97,13.34,13.34v68.61c0,7.15-5.63,12.97-12.7,13.31v-7.45c0-6.73-5.46-12.19-12.19-12.19s-12.19,5.46-12.19,12.19v7.49h-44.07s0,0,0,0l-23.93,41.44,12.15,7.02,19.88-34.43h35.97v29.42l-1.82-3.15c-3.37-5.83-10.82-7.83-16.65-4.46-5.83,3.37-7.83,10.82-4.46,16.65l11.43,19.79c1.09,1.76,3.38,2.36,5.19,1.32,1.83-1.06,2.46-3.39,1.42-5.23l-5.91-10.23h.01s-5.48-9.5-5.48-9.5c-1.24-2.15-.51-4.9,1.65-6.15,2.15-1.24,4.9-.51,6.15,1.65l5.48,9.5.03-.02.28.49h0s3.21,5.55,3.21,5.55c.01.02.03.03.04.05.1.17.22.33.34.48.04.05.08.1.12.15.12.13.25.25.39.36.06.05.11.1.17.14.14.1.28.18.43.26.07.04.14.08.21.12.14.07.29.11.44.16.09.03.18.06.28.09.13.03.26.05.4.07.13.02.25.03.38.04.04,0,.08.01.13.01.08,0,.15-.02.22-.02.14,0,.28-.02.42-.04.11-.02.22-.05.33-.08.13-.03.26-.07.39-.12.11-.04.21-.09.32-.14.08-.04.17-.07.25-.11.05-.03.09-.06.13-.09.07-.04.13-.09.2-.14.14-.1.27-.21.39-.32.04-.04.09-.09.13-.13.12-.13.24-.27.34-.41.04-.06.07-.11.11-.17.09-.14.17-.28.24-.43.04-.08.07-.17.1-.25.05-.13.09-.26.13-.4.03-.11.05-.22.07-.33.02-.12.03-.24.04-.36,0-.09.03-.17.03-.26v-65.26c0-2.49,2.01-4.5,4.5-4.5s4.5,2.01,4.5,4.5v36.73s0,.02,0,.03v19.09c0,2.12,1.72,3.85,3.85,3.85s3.85-1.72,3.85-3.85v-19.11c0-2.48,2.02-4.49,4.5-4.49s4.5,2.01,4.5,4.5v16.1h.01v3.01c0,2.12,1.72,3.85,3.85,3.85s3.85-1.72,3.85-3.85v-14.01c0-2.49,2.01-4.5,4.5-4.5s4.5,2.01,4.5,4.5v6.24s0,.02,0,.02v7.76c.02,2.11,1.73,3.81,3.84,3.81s3.85-1.72,3.85-3.85v-3.01h0v-4.73c0-2.48,2.02-4.49,4.5-4.49s4.5,2.01,4.5,4.5v27.82h0v3.01c0,2.12,1.72,3.85,3.85,3.85s3.78-1.66,3.84-3.74v-30.93c0-6.73-5.46-12.19-12.19-12.19Z"/>
  </g>
</svg>