<?xml version="1.0" encoding="UTF-8"?>
<svg id="Layer_3" data-name="Layer 3" xmlns="http://www.w3.org/2000/svg" viewBox="0 0 300 300">
  <defs>
    <style>
      .cls-1 {
        fill: #fff;
      }
    </style>
  </defs>
  <path class="cls-1" d="M249.17,130.47h-.04c-.41-1.53-1.79-2.66-3.45-2.66-1.98,0-3.58,1.6-3.58,3.58h-.02c.02.78.04,1.56.04,2.35,0,26.28-9.57,50.32-25.4,68.86h-.02c-.4.48-.81.95-1.22,1.42-.16.18-.31.36-.48.54-.4.46-.81.91-1.23,1.36-.64.69-1.28,1.36-1.94,2.03-.45.46-.91.92-1.38,1.37-.14.13-.27.26-.41.4-15.82,15.17-37.28,24.5-60.93,24.5-48.63,0-88.06-39.42-88.06-88.06s39.42-88.06,88.06-88.06c15.88,0,30.77,4.22,43.63,11.58v-.09c10.78,5.5,20.8,12.95,29.51,22.33,1.47,1.59,2.89,3.21,4.25,4.86l4.47,5.31,1.68,2.23h.03c.76.89,1.88,1.46,3.15,1.46,1.87,0,3.43-1.24,3.96-2.93h.03s.89-3.31.89-3.31c0,0,0-.02,0-.02,0,0,0-.02,0-.03l.12-.45h-.03s0-.02,0-.02l.03.02c2.09-7.39,3.18-15.3,3.61-18.82.33-2.75.89-7,1.07-10.09.24-4.08-1.15-5.93-7.06-6-4.73-.06-5.69.13-13.46-.14-7.49-.26-9.58-.87-13.24-3.49,0,0,0,0-.02,0-17.56-12.86-39.2-20.47-62.64-20.47-58.61,0-106.12,47.51-106.12,106.12s47.51,106.12,106.12,106.12c36.48,0,68.66-18.41,87.76-46.44h-.03c.25-.36.51-.71.75-1.07.15-.22.3-.45.44-.67.32-.48.63-.98.94-1.47.74-1.18,1.47-2.37,2.17-3.59.02-.03.04-.07.06-.1.41-.71.81-1.42,1.2-2.14,6.6-12.35,10.35-26.45,10.35-41.43,0-8.65-1.25-17-3.58-24.89Z"/>
  <path class="cls-1" d="M162.39,178.55h0s20.81-61.15,20.81-61.15c.89-1.99.5-4.41-1.15-6.01-1.55-1.51-3.78-1.88-5.67-1.15h0s-60.93,22.65-60.93,22.65h0c-.77.27-1.48.71-2.09,1.33-2.06,2.12-2.02,5.51.1,7.57.4.39.85.71,1.32.94h0s23,11.33,23,11.33h0c1.75.93,2.61,2.36,2.81,2.72l11.97,22.7h0c.25.47.58.92.99,1.31,2.12,2.06,5.51,2.02,7.57-.1.61-.63,1.03-1.36,1.27-2.15Z"/>
</svg>